<?xml version="1.0" encoding="UTF-8"?>
<svg id="Layer_1" data-name="Layer 1" xmlns="http://www.w3.org/2000/svg" viewBox="0 0 466 466">
  <path d="M331.4,133.8c-25.9-26-61-40.5-97.7-40.5-76.2,0-138.2,62-138.2,138.1,0,26,7.3,51.5,21.1,73.5l3.3,5.3-14,51,52.3-13.7,5,3c21.3,12.6,45.6,19.3,70.4,19.3,76.1,0,138.2-61.9,138.2-138.2,0-36.7-14.5-71.8-40.4-97.7Zm-16.4,157.1c-3.5,9.7-20.1,18.6-28.1,19.8-7.2,1-16.2,1.5-26.1-1.7-6.1-1.9-13.8-4.5-23.7-8.8-41.7-18-68.9-60-70.9-62.7-2.1-2.8-17-22.5-17-43s10.7-30.5,14.5-34.7c2.8-3.2,6.8-5.1,11.1-5.2,2.8,0,5.6,0,8,.1,2.6,.1,6-1,9.3,7.1,3.5,8.3,11.8,28.8,12.8,30.8,1,2.1,1.7,4.5,.3,7.3-1.4,2.8-2.1,4.5-4.2,6.9-2.1,2.4-4.4,5.4-6.2,7.2-2.1,2.1-4.2,4.3-1.9,8.5,2.5,4.1,10.8,17.8,23.1,28.8,15.9,14.2,29.2,18.6,33.4,20.7,4.1,2,6.6,1.7,9-1,2.4-2.7,10.4-12.1,13.1-16.2,2.7-4.2,5.5-3.4,9.3-2.1,3.8,1.4,24.2,11.5,28.4,13.5,4.2,2.1,6.9,3.1,8,4.9,1,1.7,1,10-2.4,19.8Z"/>
  <path d="M445.7,0H20.3C9.1,0,0,9.1,0,20.3V445.7c0,11.2,9.1,20.3,20.3,20.3H445.7c11.2,0,20.3-9.1,20.3-20.3V20.3c0-11.2-9.1-20.3-20.3-20.3ZM233.7,397.9h0c-27.8,0-55.1-7-79.5-20.2l-88.2,23.1,23.5-86.2c-14.5-25.3-22.2-53.8-22.2-83.1,0-91.6,74.7-166.2,166.3-166.2,44.1-.2,86.5,17.4,117.6,48.8h0c31.3,31.1,48.9,73.5,48.8,117.6,0,91.7-74.7,166.3-166.3,166.3Z"/>
</svg>