<?xml version="1.0" encoding="UTF-8"?>
<svg id="Layer_1" data-name="Layer 1" xmlns="http://www.w3.org/2000/svg" viewBox="0 0 466 466">
  <path d="M445.7,0H20.3C9.1,0,0,9.1,0,20.3V445.7c0,11.2,9.1,20.3,20.3,20.3H445.7c11.2,0,20.3-9.1,20.3-20.3V20.3c0-11.2-9.1-20.3-20.3-20.3Zm-186.6,400v-117.4h38.9l7.4-48.6h-46.3v-31.5c0-13.3,6.5-26.3,27.2-26.3h21.1v-41.3s-19.1-3.3-37.4-3.3c-38.1,0-63.1,23.3-63.1,65.4v37h-42.4v48.5h42.4v117.4c-79.8-12.6-140.9-82.1-140.9-166S140.8,66,233,66c92.2,0,167,75.2,167,168s-61.1,153.4-140.9,166Z"/>
</svg>