<?xml version="1.0" encoding="utf-8"?>
<!-- Generator: Adobe Illustrator 27.0.0, SVG Export Plug-In . SVG Version: 6.00 Build 0)  -->
<svg version="1.1" id="Layer_1" xmlns="http://www.w3.org/2000/svg" xmlns:xlink="http://www.w3.org/1999/xlink" x="0px" y="0px"
	 viewBox="0 0 500 500" style="enable-background:new 0 0 500 500;" xml:space="preserve">
<style type="text/css">
	.st0{fill:#E1F2FC;}
</style>
<g>
	<path class="st0" d="M387.5,295.9c-59.2,0-107.1-48-107.1-107.1s48-107.1,107.1-107.1s107.1,48,107.1,107.1l0.5,15.3
		c0,118.3-95.9,214.2-214.2,214.2v-61.2c40.9,0,79.3-15.9,108.2-44.8c5.6-5.6,10.7-11.5,15.2-17.7
		C398.8,295.5,393.2,295.9,387.5,295.9L387.5,295.9z M112,295.9c-59.2,0-107.1-48-107.1-107.1S52.9,81.7,112,81.7
		s107.1,48,107.1,107.1l0.5,15.3c0,118.3-95.9,214.2-214.2,214.2v-61.2c40.9,0,79.3-15.9,108.2-44.8c5.6-5.6,10.7-11.5,15.2-17.7
		C123.4,295.5,117.8,295.9,112,295.9L112,295.9z"/>
</g>
</svg>
