<?xml version="1.0" encoding="utf-8"?>
<!-- Generator: Adobe Illustrator 27.0.0, SVG Export Plug-In . SVG Version: 6.00 Build 0)  -->
<svg version="1.1" id="Layer_1" xmlns="http://www.w3.org/2000/svg" xmlns:xlink="http://www.w3.org/1999/xlink" x="0px" y="0px" viewBox="0 0 960 960" style="enable-background:new 0 0 960 960;" xml:space="preserve">
  <style type="text/css">
    .st0 {
      fill: #043F4D;
    }
  </style>
  <g>
    <path class="st0" d="M457.1,473.7l-9.5,9.5c-14.4,14.4-37.8,14.4-52.2,0L354,441.7c-14.4-14.4-37.8-14.4-52.2,0l-94.1,94.1
		c-14.4,14.4-14.4,37.8,0,52.2l9,9c24.2,24.2,24.2,63.5,0,87.7l0,0c-24.2,24.2-63.5,24.2-87.7,0l-70.7-70.7
		c-28.8-28.8-28.8-75.6,0-104.4l243.4-243.4c14.4-14.4,37.8-14.4,52.2,0l103.1,103.1C485.9,398.1,485.9,444.9,457.1,473.7z" />
    <path class="st0" d="M901.6,450.3L658.2,693.7c-14.4,14.4-37.8,14.4-52.2,0L502.9,590.7c-28.8-28.8-28.8-75.6,0-104.4l9.5-9.5
		c14.4-14.4,37.8-14.4,52.2,0l41.4,41.4c14.4,14.4,37.8,14.4,52.2,0l94.1-94.1c14.4-14.4,14.4-37.8,0-52.2l-9-9
		c-24.2-24.2-24.2-63.5,0-87.7l0,0c24.2-24.2,63.5-24.2,87.7,0l70.7,70.7C930.5,374.7,930.5,421.5,901.6,450.3z" />
  </g>
</svg>